<svg width="25" height="26" viewBox="0 0 25 26" fill="none" xmlns="http://www.w3.org/2000/svg">
<path d="M19.4437 7.40898C19.3561 7.39646 19.2685 7.39646 19.1808 7.40898C17.2406 7.34639 15.7009 5.75664 15.7009 3.80389C15.7009 1.81358 17.3157 0.186279 19.3185 0.186279C21.3088 0.186279 22.9361 1.80106 22.9361 3.80389C22.9236 5.75664 21.384 7.34639 19.4437 7.40898Z" fill="#ACACAC"/>
<path d="M23.5275 16.0842C22.1255 17.0231 20.1602 17.3736 18.3452 17.1357C18.8209 16.1093 19.0712 14.9702 19.0837 13.7685C19.0837 12.5167 18.8083 11.3275 18.2826 10.2886C20.1352 10.0382 22.1005 10.3887 23.515 11.3275C25.4928 12.6294 25.4928 14.7699 23.5275 16.0842Z" fill="#ACACAC"/>
<path d="M5.56292 7.40898C5.65054 7.39646 5.73817 7.39646 5.82579 7.40898C7.76603 7.34639 9.3057 5.75664 9.3057 3.80389C9.3057 1.80106 7.69093 0.186279 5.6881 0.186279C3.69779 0.186279 2.08301 1.80106 2.08301 3.80389C2.08301 5.75664 3.62268 7.34639 5.56292 7.40898Z" fill="#ACACAC"/>
<path d="M5.7018 13.7687C5.7018 14.9829 5.96467 16.1345 6.44034 17.1735C4.67535 17.3613 2.83525 16.9857 1.48334 16.097C-0.494448 14.7826 -0.494448 12.6421 1.48334 11.3278C2.82274 10.4265 4.7129 10.0635 6.49041 10.2638C5.97719 11.3152 5.7018 12.5044 5.7018 13.7687Z" fill="#ACACAC"/>
<path d="M12.6738 17.5482C12.5736 17.5357 12.461 17.5357 12.3483 17.5482C10.0451 17.4731 8.20496 15.583 8.20496 13.2547C8.21747 10.8763 10.1327 8.94861 12.5236 8.94861C14.9019 8.94861 16.8297 10.8763 16.8297 13.2547C16.8171 15.583 14.9896 17.4731 12.6738 17.5482Z" fill="#ACACAC"/>
<path d="M8.60549 20.1402C6.71532 21.4045 6.71532 23.4824 8.60549 24.7342C10.7586 26.1737 14.2885 26.1737 16.4416 24.7342C18.3317 23.4699 18.3317 21.392 16.4416 20.1402C14.3011 18.7007 10.7711 18.7007 8.60549 20.1402Z" fill="#ACACAC"/>
</svg>
