<svg width="31" height="35" viewBox="0 0 31 35" fill="none" xmlns="http://www.w3.org/2000/svg">
<path d="M7.94539 17.2436C7.94539 16.5415 8.5276 15.9593 9.22967 15.9593H18.6135V1.47264C18.5964 0.6507 17.9457 0 17.1237 0C7.03784 0 0 7.03784 0 17.1237C0 27.2095 7.03784 34.2474 17.1237 34.2474C17.9285 34.2474 18.5964 33.5967 18.5964 32.7747V18.5107H9.22967C8.51047 18.5278 7.94539 17.9456 7.94539 17.2436Z" fill="#ACACAC"/>
<path d="M30.0277 16.2528L25.1645 11.3724C24.6679 10.8759 23.846 10.8759 23.3494 11.3724C22.8528 11.869 22.8528 12.691 23.3494 13.1876L26.0207 15.8589H19V18.4275H26.0036L23.3323 21.0988C22.8357 21.5954 22.8357 22.4173 23.3323 22.9139C23.5891 23.1707 23.9145 23.2906 24.2399 23.2906C24.5652 23.2906 24.8906 23.1707 25.1474 22.9139L30.0105 18.0336C30.5242 17.5542 30.5242 16.7493 30.0277 16.2528Z" fill="#ACACAC"/>
</svg>
