<svg width="25" height="26" viewBox="0 0 25 26" fill="none" xmlns="http://www.w3.org/2000/svg">
<path d="M6.55016 0.499878H4.1751C1.43754 0.499878 0 1.93741 0 4.66248V7.03754C0 9.76261 1.43754 11.2001 4.1626 11.2001H6.53766C9.26273 11.2001 10.7003 9.76261 10.7003 7.03754V4.66248C10.7128 1.93741 9.27523 0.499878 6.55016 0.499878Z" fill="white"/>
<path d="M20.8373 0.499878H18.4623C15.7372 0.499878 14.2997 1.93741 14.2997 4.66248V7.03754C14.2997 9.76261 15.7372 11.2001 18.4623 11.2001H20.8373C23.5624 11.2001 25 9.76261 25 7.03754V4.66248C25 1.93741 23.5624 0.499878 20.8373 0.499878Z" fill="white"/>
<path d="M20.8373 14.7874H18.4623C15.7372 14.7874 14.2997 16.2249 14.2997 18.95V21.325C14.2997 24.0501 15.7372 25.4876 18.4623 25.4876H20.8373C23.5624 25.4876 25 24.0501 25 21.325V18.95C25 16.2249 23.5624 14.7874 20.8373 14.7874Z" fill="white"/>
<path d="M6.55016 14.7874H4.1751C1.43754 14.7874 0 16.2249 0 18.95V21.325C0 24.0626 1.43754 25.5001 4.1626 25.5001H6.53766C9.26273 25.5001 10.7003 24.0626 10.7003 21.3375V18.9625C10.7128 16.2249 9.27523 14.7874 6.55016 14.7874Z" fill="white"/>
</svg>
