<svg width="25" height="28" viewBox="0 0 25 28" fill="none" xmlns="http://www.w3.org/2000/svg">
<path d="M18.9331 18.8376C19.8233 18.253 20.9926 18.8908 20.9926 19.9537V21.6678C20.9926 23.3553 19.6771 25.1623 18.096 25.6938L13.8573 27.1023C13.1132 27.3547 11.9041 27.3547 11.1733 27.1023L6.93465 25.6938C5.34018 25.1623 4.03802 23.3553 4.03802 21.6678V19.9405C4.03802 18.8908 5.2073 18.253 6.08426 18.8243L8.82144 20.6048C9.87114 21.309 11.1999 21.6545 12.5286 21.6545C13.8573 21.6545 15.186 21.309 16.2357 20.6048L18.9331 18.8376Z" fill="#ACACAC"/>
<path d="M23.1165 6.63781L15.1574 1.41592C13.7224 0.472525 11.3572 0.472525 9.92222 1.41592L1.92333 6.63781C-0.64111 8.29872 -0.64111 12.059 1.92333 13.7332L4.04929 15.1151L9.92222 18.9418C11.3572 19.8852 13.7224 19.8852 15.1574 18.9418L20.9905 15.1151L22.8109 13.9192V17.9851C22.8109 18.5299 23.2626 18.9817 23.8074 18.9817C24.3522 18.9817 24.8039 18.5299 24.8039 17.9851V11.4478C25.3354 9.73374 24.7907 7.74065 23.1165 6.63781Z" fill="#ACACAC"/>
</svg>
