<svg width="25" height="28" viewBox="0 0 25 28" fill="none" xmlns="http://www.w3.org/2000/svg">
<path d="M16.5698 0.806261V9.0007C16.5698 9.61182 15.8476 9.91737 15.4032 9.51459L12.9726 7.27848C12.7087 7.02848 12.2921 7.02848 12.0282 7.27848L9.59764 9.50071C9.15319 9.91737 8.43097 9.59793 8.43097 9.0007V0.806261C8.43097 0.417372 8.73652 0.111816 9.12541 0.111816H15.8754C16.2643 0.111816 16.5698 0.417372 16.5698 0.806261Z" fill="#ACACAC"/>
<path d="M19.4167 0.193611C19.0139 0.138055 18.6528 0.485277 18.6528 0.888055V9.24917C18.6528 10.3047 18.0278 11.263 17.0556 11.6936C16.0833 12.1103 14.9583 11.9297 14.1806 11.2075L12.9722 10.0964C12.7083 9.84639 12.3056 9.84639 12.0278 10.0964L10.8194 11.2075C10.3194 11.6797 9.66667 11.9158 9.01389 11.9158C8.65278 11.9158 8.29167 11.8464 7.94444 11.6936C6.97222 11.263 6.34722 10.3047 6.34722 9.24917V0.888055C6.34722 0.485277 5.98611 0.138055 5.58333 0.193611C1.69444 0.679722 0 3.30472 0 7.05472V20.9436C0 25.1103 2.08333 27.888 6.94444 27.888H18.0556C22.9167 27.888 25 25.1103 25 20.9436V7.05472C25 3.30472 23.3056 0.679722 19.4167 0.193611ZM20.1389 23.3742H8.33333C7.76389 23.3742 7.29167 22.9019 7.29167 22.3325C7.29167 21.763 7.76389 21.2908 8.33333 21.2908H20.1389C20.7083 21.2908 21.1806 21.763 21.1806 22.3325C21.1806 22.9019 20.7083 23.3742 20.1389 23.3742ZM20.1389 17.8186H14.2361C13.6667 17.8186 13.1944 17.3464 13.1944 16.7769C13.1944 16.2075 13.6667 15.7353 14.2361 15.7353H20.1389C20.7083 15.7353 21.1806 16.2075 21.1806 16.7769C21.1806 17.3464 20.7083 17.8186 20.1389 17.8186Z" fill="#ACACAC"/>
</svg>
